<mxfile host="app.diagrams.net" modified="2021-11-08T13:45:55.866Z" agent="5.0 (Windows NT 10.0; Win64; x64) AppleWebKit/537.36 (KHTML, like Gecko) Chrome/95.0.4638.69 Safari/537.36" etag="nP1EbAg9W5ZJ3tU7WF6o" version="15.6.8" type="github">
  <diagram id="ZgGe328IVPUMkchQ9120" name="Page-1">
    <mxGraphModel dx="868" dy="460" grid="1" gridSize="10" guides="1" tooltips="1" connect="1" arrows="1" fold="1" page="1" pageScale="1" pageWidth="850" pageHeight="1100" math="1" shadow="0">
      <root>
        <mxCell id="0" />
        <mxCell id="1" parent="0" />
        <mxCell id="8mZO6mLUGA8oXgI2Dx6Y-8" style="edgeStyle=orthogonalEdgeStyle;rounded=0;orthogonalLoop=1;jettySize=auto;html=1;exitX=0.5;exitY=1;exitDx=0;exitDy=0;entryX=0.5;entryY=0;entryDx=0;entryDy=0;endArrow=classic;endFill=1;strokeColor=#000000;strokeWidth=2;shadow=1;" parent="1" source="I_6P_KlLh6MDC354pf-8-2" target="I_6P_KlLh6MDC354pf-8-3" edge="1">
          <mxGeometry relative="1" as="geometry" />
        </mxCell>
        <mxCell id="I_6P_KlLh6MDC354pf-8-2" value="&lt;font style=&quot;font-size: 16px&quot; color=&quot;#ffffff&quot;&gt;InputLayer&lt;/font&gt;" style="rounded=1;whiteSpace=wrap;html=1;fillColor=#4D4D4D;" parent="1" vertex="1">
          <mxGeometry x="340" y="240" width="120" height="40" as="geometry" />
        </mxCell>
        <mxCell id="8mZO6mLUGA8oXgI2Dx6Y-9" style="edgeStyle=orthogonalEdgeStyle;rounded=0;orthogonalLoop=1;jettySize=auto;html=1;exitX=0.5;exitY=1;exitDx=0;exitDy=0;entryX=0.5;entryY=0;entryDx=0;entryDy=0;endArrow=classic;endFill=1;strokeColor=#000000;strokeWidth=2;shadow=1;" parent="1" source="I_6P_KlLh6MDC354pf-8-3" target="I_6P_KlLh6MDC354pf-8-10" edge="1">
          <mxGeometry relative="1" as="geometry" />
        </mxCell>
        <mxCell id="I_6P_KlLh6MDC354pf-8-3" value="&lt;font style=&quot;font-size: 16px&quot;&gt;Rescaling&lt;/font&gt;" style="rounded=1;whiteSpace=wrap;html=1;fillColor=#000000;fontColor=#FFFFFF;" parent="1" vertex="1">
          <mxGeometry x="340" y="320" width="120" height="40" as="geometry" />
        </mxCell>
        <mxCell id="I_6P_KlLh6MDC354pf-8-14" value="" style="group" parent="1" vertex="1" connectable="0">
          <mxGeometry x="325" y="400" width="150" height="128" as="geometry" />
        </mxCell>
        <mxCell id="I_6P_KlLh6MDC354pf-8-12" value="&amp;nbsp;&lt;br&gt;&amp;nbsp;ReLU" style="rounded=1;whiteSpace=wrap;html=1;labelBackgroundColor=none;labelBorderColor=none;fontFamily=Helvetica;fontSize=16;fontColor=#FFFFFF;strokeColor=#000000;strokeWidth=2;fillColor=#482622;align=left;" parent="I_6P_KlLh6MDC354pf-8-14" vertex="1">
          <mxGeometry y="68" width="150" height="60" as="geometry" />
        </mxCell>
        <mxCell id="I_6P_KlLh6MDC354pf-8-10" value="&amp;nbsp;&lt;font style=&quot;font-size: 16px&quot;&gt;Conv2D&lt;/font&gt;" style="rounded=1;whiteSpace=wrap;html=1;labelBackgroundColor=none;labelBorderColor=none;fontFamily=Helvetica;fontSize=14;fontColor=#FFFFFF;strokeColor=#000000;strokeWidth=2;fillColor=#374F72;align=left;" parent="I_6P_KlLh6MDC354pf-8-14" vertex="1">
          <mxGeometry width="150" height="50" as="geometry" />
        </mxCell>
        <mxCell id="I_6P_KlLh6MDC354pf-8-11" value="&lt;span style=&quot;color: rgb(173 , 173 , 170)&quot;&gt;&lt;b&gt;&amp;nbsp;kernel &lt;/b&gt;(3× 3× 3× 16)&lt;/span&gt;&lt;br style=&quot;padding: 0px ; margin: 0px ; color: rgb(173 , 173 , 170)&quot;&gt;&lt;span style=&quot;font-weight: bold ; color: rgb(173 , 173 , 170)&quot;&gt;&amp;nbsp;bias &lt;/span&gt;&lt;span style=&quot;color: rgb(173 , 173 , 170)&quot;&gt;(16)&lt;/span&gt;" style="rounded=0;whiteSpace=wrap;html=1;labelBackgroundColor=none;labelBorderColor=none;fontFamily=Helvetica;fontSize=14;fontColor=#FFFFFF;strokeColor=#000000;strokeWidth=2;fillColor=#2D2D2D;align=left;" parent="I_6P_KlLh6MDC354pf-8-14" vertex="1">
          <mxGeometry y="40" width="150" height="50" as="geometry" />
        </mxCell>
        <mxCell id="8mZO6mLUGA8oXgI2Dx6Y-12" style="edgeStyle=orthogonalEdgeStyle;rounded=0;orthogonalLoop=1;jettySize=auto;html=1;exitX=0.5;exitY=1;exitDx=0;exitDy=0;entryX=0.5;entryY=0;entryDx=0;entryDy=0;endArrow=classic;endFill=1;strokeColor=#000000;strokeWidth=2;shadow=1;" parent="1" source="I_6P_KlLh6MDC354pf-8-15" target="I_6P_KlLh6MDC354pf-8-18" edge="1">
          <mxGeometry relative="1" as="geometry" />
        </mxCell>
        <mxCell id="I_6P_KlLh6MDC354pf-8-15" value="&lt;font style=&quot;font-size: 16px&quot; color=&quot;#ffffff&quot;&gt;MaxPooling2D&lt;/font&gt;" style="rounded=1;whiteSpace=wrap;html=1;fillColor=#335533;" parent="1" vertex="1">
          <mxGeometry x="330" y="570" width="140" height="40" as="geometry" />
        </mxCell>
        <mxCell id="I_6P_KlLh6MDC354pf-8-16" value="" style="group" parent="1" vertex="1" connectable="0">
          <mxGeometry x="325" y="650" width="150" height="128" as="geometry" />
        </mxCell>
        <mxCell id="I_6P_KlLh6MDC354pf-8-17" value="&amp;nbsp;&lt;br&gt;&amp;nbsp;ReLU" style="rounded=1;whiteSpace=wrap;html=1;labelBackgroundColor=none;labelBorderColor=none;fontFamily=Helvetica;fontSize=16;fontColor=#FFFFFF;strokeColor=#000000;strokeWidth=2;fillColor=#482622;align=left;" parent="I_6P_KlLh6MDC354pf-8-16" vertex="1">
          <mxGeometry y="68" width="150" height="60" as="geometry" />
        </mxCell>
        <mxCell id="I_6P_KlLh6MDC354pf-8-18" value="&amp;nbsp;&lt;font style=&quot;font-size: 16px&quot;&gt;Conv2D&lt;/font&gt;" style="rounded=1;whiteSpace=wrap;html=1;labelBackgroundColor=none;labelBorderColor=none;fontFamily=Helvetica;fontSize=14;fontColor=#FFFFFF;strokeColor=#000000;strokeWidth=2;fillColor=#374F72;align=left;" parent="I_6P_KlLh6MDC354pf-8-16" vertex="1">
          <mxGeometry width="150" height="50" as="geometry" />
        </mxCell>
        <mxCell id="I_6P_KlLh6MDC354pf-8-19" value="&lt;span style=&quot;color: rgb(173 , 173 , 170)&quot;&gt;&lt;b&gt;&amp;nbsp;kernel &lt;/b&gt;(3× 3× 16× 32)&lt;/span&gt;&lt;br style=&quot;padding: 0px ; margin: 0px ; color: rgb(173 , 173 , 170)&quot;&gt;&lt;span style=&quot;font-weight: bold ; color: rgb(173 , 173 , 170)&quot;&gt;&amp;nbsp;bias &lt;/span&gt;&lt;span style=&quot;color: rgb(173 , 173 , 170)&quot;&gt;(32)&lt;/span&gt;" style="rounded=0;whiteSpace=wrap;html=1;labelBackgroundColor=none;labelBorderColor=none;fontFamily=Helvetica;fontSize=14;fontColor=#FFFFFF;strokeColor=#000000;strokeWidth=2;fillColor=#2D2D2D;align=left;" parent="I_6P_KlLh6MDC354pf-8-16" vertex="1">
          <mxGeometry y="40" width="150" height="50" as="geometry" />
        </mxCell>
        <mxCell id="8mZO6mLUGA8oXgI2Dx6Y-14" style="edgeStyle=orthogonalEdgeStyle;rounded=0;orthogonalLoop=1;jettySize=auto;html=1;exitX=0.5;exitY=1;exitDx=0;exitDy=0;entryX=0.5;entryY=0;entryDx=0;entryDy=0;endArrow=classic;endFill=1;strokeColor=#000000;strokeWidth=2;shadow=1;" parent="1" source="I_6P_KlLh6MDC354pf-8-20" target="I_6P_KlLh6MDC354pf-8-41" edge="1">
          <mxGeometry relative="1" as="geometry" />
        </mxCell>
        <mxCell id="I_6P_KlLh6MDC354pf-8-20" value="&lt;font style=&quot;font-size: 16px&quot;&gt;MaxPooling2D&lt;/font&gt;" style="rounded=1;whiteSpace=wrap;html=1;fillColor=#335533;fontColor=#FFFFFF;" parent="1" vertex="1">
          <mxGeometry x="330" y="820" width="140" height="40" as="geometry" />
        </mxCell>
        <mxCell id="8mZO6mLUGA8oXgI2Dx6Y-18" style="edgeStyle=orthogonalEdgeStyle;rounded=0;orthogonalLoop=1;jettySize=auto;html=1;exitX=0.5;exitY=1;exitDx=0;exitDy=0;entryX=0.5;entryY=0;entryDx=0;entryDy=0;endArrow=classic;endFill=1;strokeColor=#000000;strokeWidth=2;shadow=1;" parent="1" source="I_6P_KlLh6MDC354pf-8-21" target="I_6P_KlLh6MDC354pf-8-22" edge="1">
          <mxGeometry relative="1" as="geometry" />
        </mxCell>
        <mxCell id="I_6P_KlLh6MDC354pf-8-21" value="&lt;font style=&quot;font-size: 16px&quot;&gt;Dropout&lt;/font&gt;" style="rounded=1;whiteSpace=wrap;html=1;fillColor=#454770;fontColor=#FFFFFF;" parent="1" vertex="1">
          <mxGeometry x="330" y="1150" width="140" height="40" as="geometry" />
        </mxCell>
        <mxCell id="8mZO6mLUGA8oXgI2Dx6Y-19" style="edgeStyle=orthogonalEdgeStyle;rounded=0;orthogonalLoop=1;jettySize=auto;html=1;exitX=0.5;exitY=1;exitDx=0;exitDy=0;entryX=0.5;entryY=0;entryDx=0;entryDy=0;endArrow=classic;endFill=1;strokeColor=#000000;strokeWidth=2;shadow=1;" parent="1" source="I_6P_KlLh6MDC354pf-8-22" target="I_6P_KlLh6MDC354pf-8-26" edge="1">
          <mxGeometry relative="1" as="geometry" />
        </mxCell>
        <mxCell id="I_6P_KlLh6MDC354pf-8-22" value="&lt;font style=&quot;font-size: 16px&quot; color=&quot;#ffffff&quot;&gt;Flatten&lt;/font&gt;" style="rounded=1;whiteSpace=wrap;html=1;fillColor=#6C4F47;" parent="1" vertex="1">
          <mxGeometry x="330" y="1230" width="140" height="40" as="geometry" />
        </mxCell>
        <mxCell id="I_6P_KlLh6MDC354pf-8-23" value="&lt;font style=&quot;font-size: 16px&quot;&gt;dense_1&lt;/font&gt;" style="rounded=1;whiteSpace=wrap;html=1;fillColor=#E6E6E6;" parent="1" vertex="1">
          <mxGeometry x="330" y="1600" width="140" height="40" as="geometry" />
        </mxCell>
        <mxCell id="I_6P_KlLh6MDC354pf-8-24" value="" style="group" parent="1" vertex="1" connectable="0">
          <mxGeometry x="325" y="1310" width="150" height="128" as="geometry" />
        </mxCell>
        <mxCell id="I_6P_KlLh6MDC354pf-8-25" value="&amp;nbsp;&lt;br&gt;&amp;nbsp;ReLU" style="rounded=1;whiteSpace=wrap;html=1;labelBackgroundColor=none;labelBorderColor=none;fontFamily=Helvetica;fontSize=16;fontColor=#FFFFFF;strokeColor=#000000;strokeWidth=2;fillColor=#482622;align=left;" parent="I_6P_KlLh6MDC354pf-8-24" vertex="1">
          <mxGeometry y="68" width="150" height="60" as="geometry" />
        </mxCell>
        <mxCell id="I_6P_KlLh6MDC354pf-8-26" value="&lt;font style=&quot;font-size: 16px&quot;&gt;&amp;nbsp;Dense&lt;/font&gt;" style="rounded=1;whiteSpace=wrap;html=1;labelBackgroundColor=none;labelBorderColor=none;fontFamily=Helvetica;fontSize=14;fontColor=#FFFFFF;strokeColor=#000000;strokeWidth=2;fillColor=#374F72;align=left;" parent="I_6P_KlLh6MDC354pf-8-24" vertex="1">
          <mxGeometry width="150" height="50" as="geometry" />
        </mxCell>
        <mxCell id="I_6P_KlLh6MDC354pf-8-27" value="&lt;span style=&quot;color: rgb(173 , 173 , 170)&quot;&gt;&lt;b&gt;&amp;nbsp;kernel &lt;/b&gt;(50179× 128)&lt;/span&gt;&lt;br style=&quot;padding: 0px ; margin: 0px ; color: rgb(173 , 173 , 170)&quot;&gt;&lt;span style=&quot;font-weight: bold ; color: rgb(173 , 173 , 170)&quot;&gt;&amp;nbsp;bias &lt;/span&gt;&lt;span style=&quot;color: rgb(173 , 173 , 170)&quot;&gt;(128)&lt;/span&gt;" style="rounded=0;whiteSpace=wrap;html=1;labelBackgroundColor=none;labelBorderColor=none;fontFamily=Helvetica;fontSize=14;fontColor=#FFFFFF;strokeColor=#000000;strokeWidth=2;fillColor=#2D2D2D;align=left;" parent="I_6P_KlLh6MDC354pf-8-24" vertex="1">
          <mxGeometry y="40" width="150" height="50" as="geometry" />
        </mxCell>
        <mxCell id="I_6P_KlLh6MDC354pf-8-32" value=" Dense" style="swimlane;fontStyle=0;childLayout=stackLayout;horizontal=1;startSize=26;fillColor=#374F72;horizontalStack=0;resizeParent=1;resizeParentMax=0;resizeLast=0;collapsible=1;marginBottom=0;rounded=1;labelBackgroundColor=none;labelBorderColor=none;fontFamily=Helvetica;fontSize=16;fontColor=#FFFFFF;strokeColor=#000000;strokeWidth=2;align=left;" parent="1" vertex="1">
          <mxGeometry x="325" y="1480" width="150" height="80" as="geometry" />
        </mxCell>
        <mxCell id="I_6P_KlLh6MDC354pf-8-33" value="kernel (128× 3)&#xa;bias (3)" style="text;strokeColor=none;fillColor=none;align=left;verticalAlign=top;spacingLeft=4;spacingRight=4;overflow=hidden;rotatable=0;points=[[0,0.5],[1,0.5]];portConstraint=eastwest;rounded=1;labelBackgroundColor=none;labelBorderColor=none;fontFamily=Helvetica;fontSize=16;fontColor=#000000;" parent="I_6P_KlLh6MDC354pf-8-32" vertex="1">
          <mxGeometry y="26" width="150" height="54" as="geometry" />
        </mxCell>
        <mxCell id="I_6P_KlLh6MDC354pf-8-39" value="" style="group" parent="1" vertex="1" connectable="0">
          <mxGeometry x="325" y="900" width="150" height="128" as="geometry" />
        </mxCell>
        <mxCell id="I_6P_KlLh6MDC354pf-8-40" value="&amp;nbsp;&lt;br&gt;&amp;nbsp;ReLU" style="rounded=1;whiteSpace=wrap;html=1;labelBackgroundColor=none;labelBorderColor=none;fontFamily=Helvetica;fontSize=16;fontColor=#FFFFFF;strokeColor=#000000;strokeWidth=2;fillColor=#482622;align=left;" parent="I_6P_KlLh6MDC354pf-8-39" vertex="1">
          <mxGeometry y="68" width="150" height="60" as="geometry" />
        </mxCell>
        <mxCell id="I_6P_KlLh6MDC354pf-8-41" value="&amp;nbsp;&lt;font style=&quot;font-size: 16px&quot;&gt;Conv2D&lt;/font&gt;" style="rounded=1;whiteSpace=wrap;html=1;labelBackgroundColor=none;labelBorderColor=none;fontFamily=Helvetica;fontSize=14;fontColor=#FFFFFF;strokeColor=#000000;strokeWidth=2;fillColor=#374F72;align=left;" parent="I_6P_KlLh6MDC354pf-8-39" vertex="1">
          <mxGeometry width="150" height="50" as="geometry" />
        </mxCell>
        <mxCell id="I_6P_KlLh6MDC354pf-8-42" value="&lt;span style=&quot;color: rgb(173 , 173 , 170)&quot;&gt;&lt;b&gt;&amp;nbsp;kernel &lt;/b&gt;(3× 3× 32× 6)&lt;/span&gt;&lt;br style=&quot;padding: 0px ; margin: 0px ; color: rgb(173 , 173 , 170)&quot;&gt;&lt;span style=&quot;font-weight: bold ; color: rgb(173 , 173 , 170)&quot;&gt;&amp;nbsp;bias &lt;/span&gt;&lt;span style=&quot;color: rgb(173 , 173 , 170)&quot;&gt;(64)&lt;/span&gt;" style="rounded=0;whiteSpace=wrap;html=1;labelBackgroundColor=none;labelBorderColor=none;fontFamily=Helvetica;fontSize=14;fontColor=#FFFFFF;strokeColor=#000000;strokeWidth=2;fillColor=#2D2D2D;align=left;" parent="I_6P_KlLh6MDC354pf-8-39" vertex="1">
          <mxGeometry y="40" width="150" height="50" as="geometry" />
        </mxCell>
        <mxCell id="8mZO6mLUGA8oXgI2Dx6Y-17" style="edgeStyle=orthogonalEdgeStyle;rounded=0;orthogonalLoop=1;jettySize=auto;html=1;exitX=0.5;exitY=1;exitDx=0;exitDy=0;entryX=0.5;entryY=0;entryDx=0;entryDy=0;endArrow=classic;endFill=1;strokeColor=#000000;strokeWidth=2;shadow=1;" parent="1" source="I_6P_KlLh6MDC354pf-8-43" target="I_6P_KlLh6MDC354pf-8-21" edge="1">
          <mxGeometry relative="1" as="geometry" />
        </mxCell>
        <mxCell id="I_6P_KlLh6MDC354pf-8-43" value="&lt;font style=&quot;font-size: 16px&quot;&gt;MaxPooling2D&lt;/font&gt;" style="rounded=1;whiteSpace=wrap;html=1;fontColor=#FFFFFF;fillColor=#335533;" parent="1" vertex="1">
          <mxGeometry x="330" y="1070" width="140" height="40" as="geometry" />
        </mxCell>
        <mxCell id="8mZO6mLUGA8oXgI2Dx6Y-7" style="edgeStyle=orthogonalEdgeStyle;rounded=0;orthogonalLoop=1;jettySize=auto;html=1;exitX=0.5;exitY=1;exitDx=0;exitDy=0;entryX=0.5;entryY=0;entryDx=0;entryDy=0;endArrow=classic;endFill=1;strokeColor=#000000;strokeWidth=2;shadow=1;" parent="1" source="I_6P_KlLh6MDC354pf-8-1" target="I_6P_KlLh6MDC354pf-8-2" edge="1">
          <mxGeometry relative="1" as="geometry" />
        </mxCell>
        <mxCell id="I_6P_KlLh6MDC354pf-8-1" value="&lt;font style=&quot;font-size: 16px&quot;&gt;input&lt;/font&gt;" style="rounded=1;whiteSpace=wrap;html=1;fillColor=#E6E6E6;" parent="1" vertex="1">
          <mxGeometry x="360" y="158" width="80" height="40" as="geometry" />
        </mxCell>
        <mxCell id="8mZO6mLUGA8oXgI2Dx6Y-10" style="edgeStyle=orthogonalEdgeStyle;rounded=0;orthogonalLoop=1;jettySize=auto;html=1;exitX=0.5;exitY=1;exitDx=0;exitDy=0;entryX=0.5;entryY=0;entryDx=0;entryDy=0;endArrow=classic;endFill=1;strokeColor=#000000;strokeWidth=2;shadow=1;" parent="1" source="I_6P_KlLh6MDC354pf-8-12" target="I_6P_KlLh6MDC354pf-8-15" edge="1">
          <mxGeometry relative="1" as="geometry" />
        </mxCell>
        <mxCell id="8mZO6mLUGA8oXgI2Dx6Y-13" style="edgeStyle=orthogonalEdgeStyle;rounded=0;orthogonalLoop=1;jettySize=auto;html=1;exitX=0.5;exitY=1;exitDx=0;exitDy=0;entryX=0.5;entryY=0;entryDx=0;entryDy=0;endArrow=classic;endFill=1;strokeColor=#000000;strokeWidth=2;shadow=1;" parent="1" source="I_6P_KlLh6MDC354pf-8-17" target="I_6P_KlLh6MDC354pf-8-20" edge="1">
          <mxGeometry relative="1" as="geometry" />
        </mxCell>
        <mxCell id="8mZO6mLUGA8oXgI2Dx6Y-16" style="edgeStyle=orthogonalEdgeStyle;rounded=0;orthogonalLoop=1;jettySize=auto;html=1;exitX=0.5;exitY=1;exitDx=0;exitDy=0;endArrow=classic;endFill=1;strokeColor=#000000;strokeWidth=2;shadow=1;" parent="1" source="I_6P_KlLh6MDC354pf-8-40" target="I_6P_KlLh6MDC354pf-8-43" edge="1">
          <mxGeometry relative="1" as="geometry" />
        </mxCell>
        <mxCell id="8mZO6mLUGA8oXgI2Dx6Y-20" style="edgeStyle=orthogonalEdgeStyle;rounded=0;orthogonalLoop=1;jettySize=auto;html=1;exitX=0.5;exitY=1;exitDx=0;exitDy=0;entryX=0.5;entryY=0;entryDx=0;entryDy=0;endArrow=classic;endFill=1;strokeColor=#000000;strokeWidth=2;shadow=1;" parent="1" source="I_6P_KlLh6MDC354pf-8-25" target="I_6P_KlLh6MDC354pf-8-32" edge="1">
          <mxGeometry relative="1" as="geometry" />
        </mxCell>
        <mxCell id="8mZO6mLUGA8oXgI2Dx6Y-21" style="edgeStyle=orthogonalEdgeStyle;rounded=0;orthogonalLoop=1;jettySize=auto;html=1;exitX=0.493;exitY=1.047;exitDx=0;exitDy=0;entryX=0.5;entryY=0;entryDx=0;entryDy=0;exitPerimeter=0;endArrow=classic;endFill=1;strokeColor=#000000;strokeWidth=2;shadow=1;" parent="1" source="I_6P_KlLh6MDC354pf-8-33" target="I_6P_KlLh6MDC354pf-8-23" edge="1">
          <mxGeometry relative="1" as="geometry" />
        </mxCell>
      </root>
    </mxGraphModel>
  </diagram>
</mxfile>
